<svg viewBox="-6 -6 132 132" xmlns="http://www.w3.org/2000/svg" role="img" aria-label="Piano-key scarf mark">
  <g transform="rotate(-25 60 60)">
    <g stroke="#1F3864" stroke-width="1.5" stroke-linecap="round">
      <line x1="2" y1="50" x2="-3" y2="55"/>
      <line x1="2" y1="55" x2="-3" y2="60"/>
      <line x1="2" y1="60" x2="-3" y2="65"/>
      <line x1="2" y1="65" x2="-3" y2="70"/>
      <line x1="118" y1="50" x2="123" y2="55"/>
      <line x1="118" y1="55" x2="123" y2="60"/>
      <line x1="118" y1="60" x2="123" y2="65"/>
      <line x1="118" y1="65" x2="123" y2="70"/>
    </g>
    <rect x="5" y="47" width="110" height="26" rx="6" fill="#ffffff" stroke="#1F3864" stroke-width="2.5"/>
    <g stroke="#1F3864" stroke-width="0.8" opacity="0.55">
      <line x1="12.86" y1="47" x2="12.86" y2="73"/>
      <line x1="20.71" y1="47" x2="20.71" y2="73"/>
      <line x1="28.57" y1="47" x2="28.57" y2="73"/>
      <line x1="36.43" y1="47" x2="36.43" y2="73"/>
      <line x1="44.29" y1="47" x2="44.29" y2="73"/>
      <line x1="52.14" y1="47" x2="52.14" y2="73"/>
      <line x1="60.00" y1="47" x2="60.00" y2="73"/>
      <line x1="67.86" y1="47" x2="67.86" y2="73"/>
      <line x1="75.71" y1="47" x2="75.71" y2="73"/>
      <line x1="83.57" y1="47" x2="83.57" y2="73"/>
      <line x1="91.43" y1="47" x2="91.43" y2="73"/>
      <line x1="99.29" y1="47" x2="99.29" y2="73"/>
      <line x1="107.14" y1="47" x2="107.14" y2="73"/>
    </g>
    <g fill="#1F3864">
      <rect x="10.51" y="47" width="4.7" height="16" rx="1"/>
      <rect x="18.36" y="47" width="4.7" height="16" rx="1"/>
      <rect x="34.08" y="47" width="4.7" height="16" rx="1"/>
      <rect x="41.94" y="47" width="4.7" height="16" rx="1"/>
      <rect x="49.79" y="47" width="4.7" height="16" rx="1"/>
      <rect x="65.51" y="47" width="4.7" height="16" rx="1"/>
      <rect x="73.36" y="47" width="4.7" height="16" rx="1"/>
      <rect x="89.08" y="47" width="4.7" height="16" rx="1"/>
      <rect x="96.94" y="47" width="4.7" height="16" rx="1"/>
      <rect x="104.79" y="47" width="4.7" height="16" rx="1"/>
    </g>
  </g>
</svg>
